<?xml version="1.0" encoding="utf-8"?>
<!-- Generator: Adobe Illustrator 22.0.0, SVG Export Plug-In . SVG Version: 6.00 Build 0)  -->
<svg version="1.1" id="Layer_1" xmlns="http://www.w3.org/2000/svg" xmlns:xlink="http://www.w3.org/1999/xlink" x="0px" y="0px"
	 viewBox="0 0 343.9 343.9" style="enable-background:new 0 0 343.9 343.9;" xml:space="preserve">
<style type="text/css">
	.st0{fill:#ADADAD;}
</style>
<g>
	<path class="st0" d="M234.4,172.7c-1.4,1.1-2.5,1.9-3.5,2.9c-47.5,47.4-94.9,94.9-142.4,142.3c-1,1-2,1.9-2.9,3
		c-3.1,3.9-3.7,8.2-1.6,12.7c2.2,4.5,6,6.9,11.1,6.9c4.2,0,7.2-2.4,10-5.2c50.7-50.7,101.4-101.5,152.2-152.2
		c7.8-7.8,7.8-13.6-0.1-21.4C206.7,111.1,156.1,60.6,105.6,10c-1-1-1.9-2-3-2.9c-4-3.2-8.4-3.8-13-1.5c-4.5,2.3-6.8,6.1-6.7,11.2
		c0.1,3.9,2.2,6.7,4.8,9.4c35.8,35.8,71.6,71.5,107.4,107.3C208,146.4,220.8,159.2,234.4,172.7z"/>
	<path class="st0" d="M234.4,172.7c-13.5-13.5-26.4-26.3-39.2-39.1C159.4,97.8,123.6,62.1,87.8,26.3c-2.7-2.6-4.8-5.5-4.8-9.4
		c-0.1-5.1,2.1-9,6.7-11.2c4.6-2.3,9-1.7,13,1.5c1.1,0.8,2,1.9,3,2.9c50.6,50.5,101.1,101.1,151.6,151.6c7.8,7.8,7.9,13.6,0.1,21.4
		c-50.7,50.7-101.5,101.4-152.2,152.2c-2.8,2.8-5.8,5.2-10,5.2c-5.1,0-8.9-2.4-11.1-6.9c-2.1-4.4-1.5-8.8,1.6-12.7
		c0.8-1.1,1.9-2,2.9-3c47.5-47.4,94.9-94.9,142.4-142.3C231.8,174.6,233,173.8,234.4,172.7z"/>
</g>
</svg>
