<svg xmlns="http://www.w3.org/2000/svg" viewBox="0 0 480.18 166.08"><rect style="fill: #ffb900" x="-7.7" y="-2.66" width="495.59" height="171.41" /><path style="fill: #fff" d="M73.11,94.25h16v8.81H64V63H88.84v8.81H73.11v6.64h14.3v8.69H73.11Z" /><path style="fill: #fff" d="M116.58,63h9.15v40h-6.87L103.42,81.32v21.74H94.27V63h6.86l15.45,21.74Z" /><path style="fill: #fff" d="M153.64,103.06,146.09,89.9h-4.35v13.16h-9.15V63h16a13.67,13.67,0,0,1,13.72,13.73,12.14,12.14,0,0,1-2,6.78A13.8,13.8,0,0,1,155,88.36l8.52,14.7ZM141.74,71.6V81.9h6.87a4.23,4.23,0,0,0,3.23-1.49,5.67,5.67,0,0,0,0-7.32,4.23,4.23,0,0,0-3.23-1.49Z" /><path style="fill: #fff" d="M201.05,97.85A20.82,20.82,0,0,1,165.48,83a20.82,20.82,0,1,1,41.64,0A20,20,0,0,1,201.05,97.85ZM178,91.62a12.09,12.09,0,0,0,16.64,0A11.56,11.56,0,0,0,198,83a11.56,11.56,0,0,0-3.35-8.58,12.09,12.09,0,0,0-16.64,0A11.56,11.56,0,0,0,174.63,83,11.56,11.56,0,0,0,178,91.62Z" /><path style="fill: #fff" d="M221.42,94.25h14.3v8.81H212.26V63h9.16Z" /><path style="fill: #fff" d="M248.87,94.25h14.3v8.81H239.72V63h9.15Z" /><path style="fill: #fff" d="M303.78,63h9.15v40h-6.86L290.62,81.32v21.74h-9.15V63h6.87l15.44,21.74Z" /><path style="fill: #fff" d="M353.65,97.85A20.82,20.82,0,0,1,318.08,83a20.82,20.82,0,1,1,41.64,0A20,20,0,0,1,353.65,97.85Zm-23.07-6.23a12.09,12.09,0,0,0,16.64,0A11.56,11.56,0,0,0,350.57,83a11.56,11.56,0,0,0-3.35-8.58,12.09,12.09,0,0,0-16.64,0A11.52,11.52,0,0,0,327.23,83,11.52,11.52,0,0,0,330.58,91.62Z" /><path style="fill: #fff" d="M371.33,103.06l-11-40h9.61l6.92,28,7.72-28H392l7.72,28,6.92-28h9.61l-11,40H394.78l-6.52-23.62-6.52,23.62Z" /></svg>