<?xml version="1.0" encoding="utf-8"?>
<!-- Generator: Adobe Illustrator 24.2.3, SVG Export Plug-In . SVG Version: 6.00 Build 0)  -->
<svg version="1.1" id="Layer_1" xmlns="http://www.w3.org/2000/svg" xmlns:xlink="http://www.w3.org/1999/xlink" x="0px" y="0px"
	 viewBox="0 0 320.8 287.6" style="enable-background:new 0 0 320.8 287.6;" xml:space="preserve">
<style type="text/css">
	.st0{fill:#037C26;}
</style>
<g>
	<path class="st0" d="M7.5,134.4c-4.6-0.1-8,3-7.5,6.8c0.3,2.1,1.6,4.4,3.1,6.1c33.3,36.3,66.6,72.6,100,108.9
		c8.7,9.5,17.4,18.9,26.1,28.4c4,4.3,8.4,4,12-0.6c0.7-0.9,1.3-1.9,1.9-2.8c58.3-89.4,116.7-178.7,175-268.1c0.7-1,1.4-2.1,1.9-3.2
		c1.4-3.1,0.6-6.4-2-8.4c-2.8-2-5.6-1.9-8.3,0.2c-1.5,1.2-2.7,2.6-4,4C247.9,66.2,189.9,126.7,132,187.4c-2.5,2.6-4.4,3.1-7.7,1.5
		c-37.5-17.7-75.1-35.3-112.7-52.8C10.1,135.3,8.5,134.8,7.5,134.4z"/>
	<path class="st0" d="M7.5,134.4c1,0.4,2.6,0.9,4.2,1.6c37.6,17.6,75.2,35.1,112.7,52.8c3.3,1.6,5.2,1.1,7.7-1.5
		C189.9,126.7,247.9,66.2,305.8,5.6c1.3-1.4,2.5-2.8,4-4c2.6-2.1,5.5-2.2,8.3-0.2c2.6,1.9,3.4,5.3,2,8.4c-0.5,1.1-1.2,2.2-1.9,3.2
		c-58.3,89.4-116.7,178.7-175,268.1c-0.6,0.9-1.2,1.9-1.9,2.8c-3.6,4.6-8,4.9-12,0.6c-8.8-9.4-17.4-18.9-26.1-28.4
		c-33.4-36.3-66.7-72.5-100-108.9c-1.5-1.6-2.8-3.9-3.1-6.1C-0.5,137.4,2.9,134.4,7.5,134.4z"/>
</g>
</svg>
