<?xml version="1.0" encoding="utf-8"?>
<!-- Generator: Adobe Illustrator 24.2.3, SVG Export Plug-In . SVG Version: 6.00 Build 0)  -->
<svg version="1.1" id="Layer_1" xmlns="http://www.w3.org/2000/svg" xmlns:xlink="http://www.w3.org/1999/xlink" x="0px" y="0px"
	 viewBox="0 0 427.9 430.3" style="enable-background:new 0 0 427.9 430.3;" xml:space="preserve">
<style type="text/css">
	.st0{fill:#FF0000;}
</style>
<g>
	<path class="st0" d="M9.6,223.2c0-5.3,0-10.6,0-16c0.3-1.8,0.7-3.6,0.8-5.5c1.1-19.8,5.2-39,12.2-57.5c37-98,140-152,241.6-126.7
		c101.6,25.3,167.9,125.5,151.5,229.2c-5.6,35.6-19.2,68.2-42.6,95.7c-55.8,65.7-126.5,89.2-210.3,69.7
		c-49.5-11.5-88.3-40.3-117.3-82c-18-26-29.2-54.7-33.5-86.1C11.1,237.2,10.4,230.2,9.6,223.2z M156.9,127.8c0,56.2,0,111.4,0,167.5
		c52.4-28,104.3-55.7,156.9-83.7C261.2,183.5,209.3,155.8,156.9,127.8z"/>
</g>
</svg>
