<svg id="Layer_1" data-name="Layer 1" xmlns="http://www.w3.org/2000/svg" viewBox="0 0 222.8 185.71"><defs><style>.cls-1{fill:#4098cf;}</style></defs><g id="_18" data-name="18"><path class="cls-1" d="M222.8,156.42H0V0H222.8ZM7.29,149.13H215.51V7.29H7.29Z"/><polygon class="cls-1" points="143.33 185.71 79.47 185.71 79.47 149.13 139.68 149.13 139.68 156.42 86.77 156.42 86.77 178.42 136.03 178.42 136.03 163.01 143.33 163.01 143.33 185.71"/><rect class="cls-1" x="62.85" y="178.42" width="97.09" height="7.29"/></g><path class="cls-1" d="M65.38,118.35V59c.29-.26.56-.54.87-.77,4.17-3,8.35-5.93,12.55-8.86A1.45,1.45,0,0,0,79.47,48c0-2.68,0-5.37,0-8.05,0-2.52,1.18-3.71,3.68-3.72,4.33,0,8.66,0,13,0a3.39,3.39,0,0,0,2.11-.66c2.29-1.68,4.61-3.3,6.91-5a14.83,14.83,0,0,1,5.64-2.23h2.93a1.81,1.81,0,0,0,.42.16,12.14,12.14,0,0,1,5.44,2.23c2.31,1.65,4.6,3.31,6.94,4.92a3,3,0,0,0,1.59.5c4.36,0,8.73,0,13.09,0,2.74,0,3.86,1.13,3.86,3.91s0,5.37,0,8a1.5,1.5,0,0,0,.52,1q6.24,4.48,12.54,8.89a2.1,2.1,0,0,1,1,1.89q0,28.55,0,57.11c0,3.13-1.93,5-5.09,5H70.47a6.87,6.87,0,0,1-1.36-.11A4.87,4.87,0,0,1,65.38,118.35ZM82.61,39.43c0,.22,0,.36,0,.51q0,15.06,0,30.12a1.45,1.45,0,0,0,.47,1q11.57,9.64,23.15,19.25a9.27,9.27,0,0,0,12,.08c1-.79,2-1.62,3-2.44q10-8.34,20.07-16.66a1.79,1.79,0,0,0,.73-1.54q0-14.64,0-29.29v-1ZM71.32,119H153.2L121,92.25c-5.88,4.54-11.64,4.51-17.42,0Zm29.85-28.87L68.56,63.06v54.2ZM156,63,123.35,90.17c10.92,9.06,21.72,18,32.64,27.11ZM145.1,68,155,59.79l-9.91-7Zm-65.7-.09V52.78l-9.89,7,9.43,7.83C79.05,67.71,79.18,67.78,79.4,67.93Zm42-31.73.11-.21c-1.84-1.21-3.62-2.52-5.54-3.59a8.08,8.08,0,0,0-4.89-.76c-3.34.35-5.51,2.74-8,4.56Z"/><path class="cls-1" d="M121.65,123.19H70.47a7.22,7.22,0,0,1-1.56-.14,5.84,5.84,0,0,1-4.49-4.41l0-.29V58.57L65,58a8,8,0,0,1,.71-.6l.81-.58c3.91-2.77,7.82-5.55,11.74-8.29.2-.14.25-.19.25-.53,0-2.12,0-4.24,0-6.36V40c0-3.08,1.62-4.71,4.67-4.72h2.3c3.57,0,7.14,0,10.71,0a2.56,2.56,0,0,0,1.51-.47c1.47-1.08,2.95-2.13,4.44-3.19l2.48-1.77a15.66,15.66,0,0,1,6-2.39l.21,0h3.11l.17.07.19.08a13.45,13.45,0,0,1,5.9,2.42l1.64,1.18c1.76,1.26,3.51,2.51,5.29,3.74a2,2,0,0,0,1,.32c3.28,0,6.56,0,9.85,0h3.23c3.31,0,4.86,1.56,4.86,4.91v2c0,2,0,4,0,6a.77.77,0,0,0,.12.24c4,2.85,8.07,5.76,12.51,8.87A3.09,3.09,0,0,1,160.15,60q0,21,0,42v15.12a5.69,5.69,0,0,1-6.09,6Zm-55.27-5a3.8,3.8,0,0,0,2.93,2.91,6.06,6.06,0,0,0,1.16.09H154c2.6,0,4.09-1.48,4.09-4V102q0-21,0-42a1.1,1.1,0,0,0-.59-1.06c-4.44-3.12-8.55-6-12.54-8.9a2.46,2.46,0,0,1-.94-1.82c0-2,0-4,0-6.06v-2c0-2.23-.67-2.91-2.86-2.91H138c-3.29,0-6.58,0-9.87,0a4,4,0,0,1-2.14-.68c-1.79-1.23-3.56-2.49-5.32-3.76L119,31.63a11.05,11.05,0,0,0-5-2.05,1.7,1.7,0,0,1-.48-.15H110.9a13.69,13.69,0,0,0-5.16,2l-2.49,1.78c-1.48,1-3,2.1-4.42,3.17a4.53,4.53,0,0,1-2.71.86c-3.56,0-7.13,0-10.69,0H83.14c-2,0-2.68.74-2.68,2.72v1.71c0,2.11,0,4.22,0,6.33a2.43,2.43,0,0,1-1.1,2.19q-5.88,4.11-11.73,8.28l-.81.58a4.11,4.11,0,0,0-.45.38ZM156,120H68.55l35-29.07.64.5c5.41,4.23,10.71,4.23,16.19,0L121,91Zm-81.88-2h76.34L120.94,93.52c-5.79,4.17-11.62,4.17-17.36,0Zm82.9,1.38-35.2-29.24L157,60.91ZM124.92,90.17l30.07,25v-50ZM67.56,119.39V60.93l35.17,29.23Zm2-54.2v49.94l30-25ZM112.23,93.5a10.37,10.37,0,0,1-6.64-2.44c-8-6.62-16.16-13.41-23.16-19.25a2.45,2.45,0,0,1-.83-1.75q0-13.71,0-27.42v-2.7a3,3,0,0,1,0-.41l.09-1.1h61.25v6.76q0,12.27,0,24.54A2.76,2.76,0,0,1,141.86,72q-7.74,6.39-15.45,12.82L121,89.38c-.72.6-1.44,1.2-2.17,1.78A10.6,10.6,0,0,1,112.23,93.5ZM83.57,40.43v2.21q0,13.71,0,27.42a.45.45,0,0,0,.12.21c7,5.84,15.13,12.63,23.14,19.25a8.28,8.28,0,0,0,10.71.07c.72-.57,1.42-1.16,2.12-1.75l5.44-4.52q7.73-6.42,15.46-12.82a.81.81,0,0,0,.36-.76q0-12.28,0-24.55V40.43ZM144.1,70.15V50.83l12.55,8.89Zm2-15.45V65.89l7.27-6ZM80.4,69.8l-1.74-1.15a3.09,3.09,0,0,1-.36-.26L67.87,59.72,80.4,50.84Zm-9.25-9.95,7.25,6V54.71Zm50.91-22.64H100l2.51-1.82c.55-.39,1.09-.82,1.62-1.24,2-1.58,4-3.2,6.91-3.51a9,9,0,0,1,5.48.89c1.38.77,2.69,1.66,4,2.52l1.64,1.1.75.49Zm-16.06-2h12.6c-1-.68-2-1.35-3.07-1.94a7.16,7.16,0,0,0-4.3-.64A10.27,10.27,0,0,0,106,35.21Z"/><path class="cls-1" d="M115.47,70.73a10.17,10.17,0,0,1-5.56,2.64,7.12,7.12,0,0,1-8.27-6.58,13.56,13.56,0,0,1,7-12.64,7.34,7.34,0,0,1,8.46,1.36,9.82,9.82,0,0,1,.67.86c.14-.59.22-.93.29-1.27.24-1.09.93-1.66,1.82-1.5a1.59,1.59,0,0,1,1.24,2.08q-1.32,6.34-2.68,12.7c-.28,1.31.07,1.79,1.43,1.85a4.6,4.6,0,0,0,4-1.71,11.46,11.46,0,0,0,2-11.86,11.22,11.22,0,0,0-9.1-7.71A18,18,0,0,0,96.8,61.5a12.61,12.61,0,0,0,8.49,15.57,27.48,27.48,0,0,0,14.72.66,14.85,14.85,0,0,0,8.07-4.9,1.58,1.58,0,0,1,2-.56,1.44,1.44,0,0,1,.82,1.76,2.56,2.56,0,0,1-.55.92,18.31,18.31,0,0,1-11,6.1,29.75,29.75,0,0,1-16.29-1.45,15.62,15.62,0,0,1-8-22.13c3.38-6.43,8.62-10.64,16-11.71,7.78-1.13,14.2,2,17.18,8.56,2.58,5.68,2,11.17-2,16.14a7.53,7.53,0,0,1-5.51,2.89C118.52,73.52,116.61,73,115.47,70.73Zm-6.58-.41a6.12,6.12,0,0,0,3.94-1.46c1.86-1.67,3.39-3.5,3.8-6.15a4.84,4.84,0,0,0-.55-3.38,10.5,10.5,0,0,0-.94-1.35,4.16,4.16,0,0,0-5-1.09,10.42,10.42,0,0,0-5.4,9.73A3.94,3.94,0,0,0,108.89,70.32Z"/><path class="cls-1" d="M113.76,82.58a30.88,30.88,0,0,1-11-2,16.15,16.15,0,0,1-9.48-9.49,17.16,17.16,0,0,1,.94-14c3.71-7,9.33-11.15,16.71-12.23,8.27-1.2,15.09,2.21,18.24,9.14a15.64,15.64,0,0,1-2.08,17.18,8.52,8.52,0,0,1-6.21,3.26c-2.54.19-4.39-.51-5.64-2.13A10.9,10.9,0,0,1,110,74.36a8.12,8.12,0,0,1-9.4-7.48,14.49,14.49,0,0,1,7.57-13.62,8.37,8.37,0,0,1,9.07,1,2.47,2.47,0,0,1,2.79-1.69,2.55,2.55,0,0,1,1.68,1.06,2.87,2.87,0,0,1,.37,2.21q-1.32,6.36-2.68,12.71a2.41,2.41,0,0,0-.07.57,2.45,2.45,0,0,0,.57.07,3.58,3.58,0,0,0,3.14-1.35A10.48,10.48,0,0,0,124.9,57a10.18,10.18,0,0,0-8.33-7.06A17,17,0,0,0,97.76,61.78a11.64,11.64,0,0,0,7.82,14.33,26.24,26.24,0,0,0,14.18.65,13.75,13.75,0,0,0,7.55-4.57,2.58,2.58,0,0,1,3.22-.82,2.41,2.41,0,0,1,1.36,2.89,3.35,3.35,0,0,1-.76,1.34A19.4,19.4,0,0,1,119.59,82,32.19,32.19,0,0,1,113.76,82.58Zm.32-36a20.32,20.32,0,0,0-2.87.21c-6.72,1-11.84,4.74-15.23,11.18a15.16,15.16,0,0,0-.84,12.41,14.17,14.17,0,0,0,8.32,8.33,28.9,28.9,0,0,0,15.76,1.4,17.22,17.22,0,0,0,10.39-5.77,1.3,1.3,0,0,0,.33-.51c.09-.37,0-.5-.26-.61s-.42-.2-.83.29a15.93,15.93,0,0,1-8.6,5.23A28.23,28.23,0,0,1,105,78a13.64,13.64,0,0,1-9.17-16.8A19.08,19.08,0,0,1,116.91,48a12.26,12.26,0,0,1,9.88,8.37,12.54,12.54,0,0,1-2.17,12.83,5.66,5.66,0,0,1-4.78,2.07,2.22,2.22,0,0,1-2.36-3.06q1.36-6.35,2.68-12.7a.88.88,0,0,0-.07-.68.51.51,0,0,0-.37-.21c-.12,0-.48-.08-.66.73l-.76,3.35L117,57l-.29-.4a4.6,4.6,0,0,0-.3-.38A6.33,6.33,0,0,0,109.12,55a12.58,12.58,0,0,0-6.48,11.67,6.21,6.21,0,0,0,2.26,4.4,6.33,6.33,0,0,0,4.87,1.27,9.22,9.22,0,0,0,5-2.39l1-.87.6,1.15c.82,1.61,2.16,2.24,4.35,2.08a6.55,6.55,0,0,0,4.81-2.52c3.68-4.58,4.29-9.66,1.82-15.09C125,49.48,120.1,46.54,114.08,46.54Zm-5.22,24.78a5,5,0,0,1-5.09-4.58,11.36,11.36,0,0,1,6-10.76,5.19,5.19,0,0,1,6.16,1.36,12.28,12.28,0,0,1,1,1.48,5.82,5.82,0,0,1,.67,4,11.28,11.28,0,0,1-4.11,6.74,7.09,7.09,0,0,1-4.56,1.72h-.08ZM112,57.49a3.2,3.2,0,0,0-1.35.3,9.46,9.46,0,0,0-4.84,8.71,3,3,0,0,0,3.1,2.82h0a5.1,5.1,0,0,0,3.3-1.21,9.33,9.33,0,0,0,3.48-5.55,3.86,3.86,0,0,0-.42-2.72,9.19,9.19,0,0,0-.85-1.22A3.16,3.16,0,0,0,112,57.49Z"/></svg>