<svg id="Layer_1" data-name="Layer 1" xmlns="http://www.w3.org/2000/svg" viewBox="0 0 227.28 189.45"><defs><style>.cls-1{fill:#4098cf;}</style></defs><g id="_2" data-name="2"><path class="cls-1" d="M227.28,189.45H0V0H227.28ZM8.09,181.35h211.1V8.09H8.09Z"/><rect class="cls-1" x="4.05" y="30.01" width="203.72" height="8.09"/><rect class="cls-1" x="17.8" y="15.14" width="7.9" height="8.09"/><rect class="cls-1" x="33.6" y="15.14" width="7.9" height="8.09"/><rect class="cls-1" x="49.4" y="15.14" width="7.9" height="8.09"/><polygon class="cls-1" points="144.18 119.89 85.83 119.89 67.26 71.56 54.09 71.56 54.09 63.46 72.82 63.46 91.39 111.79 138.7 111.79 149.29 85.36 89.11 85.36 89.11 77.27 161.25 77.27 144.18 119.89"/><path class="cls-1" d="M148.6,137.27H86.75a7.19,7.19,0,0,1-5.93-3.08,7.49,7.49,0,0,1-.79-6.9l6.2-16.65,7.58,2.82L88,129.17H148.6Z"/><path class="cls-1" d="M144.12,146.65a6.12,6.12,0,1,1-6.11-6.12A6.12,6.12,0,0,1,144.12,146.65Z"/><path class="cls-1" d="M98,146.65a6.11,6.11,0,1,1-6.11-6.12A6.12,6.12,0,0,1,98,146.65Z"/></g></svg>