<svg id="Layer_1" data-name="Layer 1" xmlns="http://www.w3.org/2000/svg" viewBox="0 0 228.99 188.28"><defs><style>.cls-1{fill:#4098cf;}</style></defs><path class="cls-1" d="M97.27,103.63a1.46,1.46,0,0,1,1.31,1.54v1.9a1.19,1.19,0,0,0,2.38,0,1.34,1.34,0,0,1,1.42-1.3,1.45,1.45,0,0,1,1.31,1.54v1.9a1.19,1.19,0,0,0,2.38,0,1.36,1.36,0,0,1,1.43-1.31,1.46,1.46,0,0,1,1.31,1.55v7.72a9.3,9.3,0,0,1-1.19,4.39H90.84c-.12-2.14-1.79-2.37-8.45-8.43a3.62,3.62,0,0,1,4.76-.12l1.67,1.43a1.31,1.31,0,0,0,1.31.23,1.14,1.14,0,0,0,.71-1.07V94.13a1.35,1.35,0,0,1,1.43-1.31,1.46,1.46,0,0,1,1.31,1.54v10.69a1.19,1.19,0,0,0,2.38,0A1.22,1.22,0,0,1,97.27,103.63ZM88.7,130.94v-7.12h20.83v7.12ZM81.32,97.21a.51.51,0,0,1-.48-.47V72.39H146.3V96.74a.51.51,0,0,1-.47.47h-50v-3a3.9,3.9,0,0,0-3.57-3.92H92A3.7,3.7,0,0,0,88.34,94V97.1h-7Zm-.48-33H146.3v5.7H80.84Zm.48-6.89h64.51a.51.51,0,0,1,.47.47v4H80.84v-4A.52.52,0,0,1,81.32,57.31Zm64.51,42.28a2.89,2.89,0,0,0,2.85-2.85v-39a2.89,2.89,0,0,0-2.85-2.85H81.32a2.9,2.9,0,0,0-2.86,2.85v39a2.9,2.9,0,0,0,2.86,2.85h7v11.16a5.62,5.62,0,0,0-3.57-1.18,5.94,5.94,0,0,0-4.52,2,2,2,0,0,0,.24,2.85c8.21,7.12,7.73,6.65,7.85,6.88h-.12a2.08,2.08,0,0,0-2,2v7.49a2.38,2.38,0,0,0,2.38,2.37h20.83a2.38,2.38,0,0,0,2.38-2.37v-7.49a2.15,2.15,0,0,0-1.67-2,10.67,10.67,0,0,0,.95-4.39v-7.72a3.83,3.83,0,0,0-5.35-3.56,3.85,3.85,0,0,0-5.12-2.14,3.64,3.64,0,0,0-4.88-2.14v-1.9h50.11Z"/><path class="cls-1" d="M109.41,133.63H88.58a2.81,2.81,0,0,1-2.81-2.8v-7.49A2.53,2.53,0,0,1,87.44,121l-1.69-1.47-5.55-4.8a2.47,2.47,0,0,1-.3-3.43,6.41,6.41,0,0,1,4.87-2.19,6.11,6.11,0,0,1,3.14.8V100H81.32A3.33,3.33,0,0,1,78,96.74v-39a3.34,3.34,0,0,1,3.29-3.28h64.51a3.33,3.33,0,0,1,3.28,3.28v39a3.32,3.32,0,0,1-3.28,3.28h-.43V99.9H96.15v.87a4.1,4.1,0,0,1,2.63.21,4,4,0,0,1,2.06,2,4.31,4.31,0,0,1,2.94.13,4.22,4.22,0,0,1,2.17,2,4.3,4.3,0,0,1,3.64.51,4.24,4.24,0,0,1,1.91,3.6v7.72a11.33,11.33,0,0,1-.8,4.14,2.57,2.57,0,0,1,1.52,2.27v7.49A2.81,2.81,0,0,1,109.41,133.63ZM88.22,121.75a1.66,1.66,0,0,0-1.59,1.59v7.49a1.94,1.94,0,0,0,2,1.94h20.83a2,2,0,0,0,2-1.94v-7.49a1.73,1.73,0,0,0-1.34-1.6l-.51-.12.22-.47a10.4,10.4,0,0,0,.91-4.22v-7.72a3.38,3.38,0,0,0-1.52-2.88,3.44,3.44,0,0,0-3.23-.29l-.41.18-.16-.42a3.38,3.38,0,0,0-1.87-1.91,3.42,3.42,0,0,0-2.68,0l-.42.19-.16-.44a3.18,3.18,0,0,0-1.75-1.88,3.15,3.15,0,0,0-2.55,0l-.6.26V99h51v.08a2.45,2.45,0,0,0,2-2.38v-39a2.45,2.45,0,0,0-2.42-2.42H81.32a2.46,2.46,0,0,0-2.43,2.42v39a2.46,2.46,0,0,0,2.43,2.42h7.45v12.47l-.69-.54A5.25,5.25,0,0,0,84.77,110a5.55,5.55,0,0,0-4.2,1.88,1.58,1.58,0,0,0,.2,2.23l5.54,4.8c2.32,2,2.32,2,2.41,2.21l.27.6ZM110,131.37H88.27v-8H110Zm-20.83-.86h20v-6.26h-20ZM107.91,122H90.43l0-.4c-.06-1.15-.57-1.6-2.93-3.53-1.27-1-3-2.46-5.38-4.61l-.35-.32.35-.32a4.06,4.06,0,0,1,5.34-.12l1.66,1.42c.15.15.36.28.87.16a.7.7,0,0,0,.44-.67V94.13a1.78,1.78,0,0,1,1.86-1.74,1.89,1.89,0,0,1,1.74,2v10.69a.76.76,0,1,0,1.52,0,1.58,1.58,0,0,1,.37-1.27,1.79,1.79,0,0,1,1.37-.58,1.89,1.89,0,0,1,1.74,2v1.9a.76.76,0,1,0,1.52,0,1.78,1.78,0,0,1,1.86-1.73,1.88,1.88,0,0,1,1.73,2v1.9a.76.76,0,1,0,1.52,0,1.79,1.79,0,0,1,1.86-1.74,1.89,1.89,0,0,1,1.74,2v7.72a9,9,0,0,1-1,4.19c-.07.14-.13.26-.17.36Zm-16.68-.86h16.11l.08-.15a8.09,8.09,0,0,0,1-3.81v-7.72a1,1,0,0,0-.88-1.12.93.93,0,0,0-1,.88,1.62,1.62,0,0,1-3.24,0v-1.9a1,1,0,0,0-.87-1.11.92.92,0,0,0-1,.87,1.62,1.62,0,0,1-3.24,0v-1.9a1.05,1.05,0,0,0-.88-1.11.9.9,0,0,0-.72.29.78.78,0,0,0-.17.64,1.62,1.62,0,1,1-3.23.06V94.36a1,1,0,0,0-.88-1.11.93.93,0,0,0-1,.88V113.6a1.55,1.55,0,0,1-1,1.46l-.09,0a1.72,1.72,0,0,1-1.72-.35l-1.64-1.4a3.16,3.16,0,0,0-3.81-.19c2.16,1.95,3.77,3.27,5,4.24C90.17,119.14,91,119.84,91.23,121.13Zm54.6-23.49H95.41V94.25a3.47,3.47,0,0,0-3.17-3.49H92A3.26,3.26,0,0,0,88.77,94v3.52h-7v.11h-.43a.94.94,0,0,1-.91-.9V72h66.32V96.74A.94.94,0,0,1,145.83,97.64Zm-49.56-.86h49.56l0-24H81.27V96.67h6.64V94A4.12,4.12,0,0,1,92,89.9h.24a4.3,4.3,0,0,1,4,4.35Zm50.46-26.45H80.41V63.77h66.32Zm-65.46-.86h64.6V64.63H81.27Zm65.46-7.22H80.41V57.78a.94.94,0,0,1,.91-.9h64.51a.94.94,0,0,1,.9.9Zm-65.45-.86h64.59V57.78l-64.54,0Z"/><path class="cls-1" d="M104.77,128.21a.83.83,0,1,1,.83-.83A.81.81,0,0,1,104.77,128.21Zm0-4a3.21,3.21,0,1,0,3.21,3.21A3.2,3.2,0,0,0,104.77,124.17Z"/><path class="cls-1" d="M92.63,84.86a1.12,1.12,0,0,0-1.19-1.18H88a1.19,1.19,0,1,0,0,2.37h3.46A1.19,1.19,0,0,0,92.63,84.86Z"/><path class="cls-1" d="M96.08,86.05h3.45a1.19,1.19,0,1,0,0-2.37H96.08a1.12,1.12,0,0,0-1.19,1.18A1.19,1.19,0,0,0,96.08,86.05Z"/><path class="cls-1" d="M104.17,86.05h3.45a1.19,1.19,0,1,0,0-2.37h-3.45A1.12,1.12,0,0,0,103,84.86,1.19,1.19,0,0,0,104.17,86.05Z"/><path class="cls-1" d="M126.43,80a5.86,5.86,0,0,1,1.42.24,7,7,0,0,0,0,9,5.84,5.84,0,0,1-1.42.23,4.75,4.75,0,1,1,0-9.5Zm11.66,4.87a4.76,4.76,0,1,1-4.76-4.75A4.69,4.69,0,0,1,138.09,84.86Zm-11.66,7a7.22,7.22,0,0,0,3.45-1,7.11,7.11,0,1,0,3.45-13.3,6.45,6.45,0,0,0-3.45.95,7.11,7.11,0,1,0-3.45,13.3Z"/><g id="_20" data-name="20"><path class="cls-1" d="M170.05,188.28H57.1V2.57h113ZM64.94,180.43H162.2v-170H64.94Z"/><rect class="cls-1" x="57.1" y="146.83" width="92.67" height="7.85"/><rect class="cls-1" x="107.44" y="164.16" width="12.27" height="7.85"/><rect class="cls-1" x="100.11" y="20.92" width="26.92" height="7.85"/></g></svg>