<svg id="Layer_1" data-name="Layer 1" xmlns="http://www.w3.org/2000/svg" viewBox="0 0 228.99 190.87"><defs><style>.cls-1{fill:#4098cf;}</style></defs><path class="cls-1" d="M43.42,94.32v5.34H50.7v3.15H43.42v5.53h8.16v3.3H39.31V91.06H51.58v3.26Z"/><path class="cls-1" d="M68.69,97.09a7.43,7.43,0,0,1,1.66,5.16v9.39H66.27v-8.92a4.23,4.23,0,0,0-1-3,3.53,3.53,0,0,0-2.71-1.06,3.65,3.65,0,0,0-2.8,1.13,4.66,4.66,0,0,0-1.05,3.27v8.57H54.61V95.49h4.11v3.24a5.21,5.21,0,0,1,2.11-2.56,6.31,6.31,0,0,1,3.4-.91A5.74,5.74,0,0,1,68.69,97.09Z"/><path class="cls-1" d="M80.46,96.15a6.29,6.29,0,0,1,3.33-.89v4.4h-1.2q-4.52,0-4.52,4.2v7.78H74V95.49h4.11v3.09A6.71,6.71,0,0,1,80.46,96.15Z"/><path class="cls-1" d="M97.76,96.28a7.18,7.18,0,0,1,3,2.87,9.52,9.52,0,0,1,0,8.81,7.32,7.32,0,0,1-3,2.88,9.49,9.49,0,0,1-8.48,0,7.39,7.39,0,0,1-3-2.88,9.52,9.52,0,0,1,0-8.81,7.24,7.24,0,0,1,3-2.87,9.57,9.57,0,0,1,8.48,0Zm-7.15,3.77a5.75,5.75,0,0,0,0,7,4.12,4.12,0,0,0,5.83,0,5.79,5.79,0,0,0,0-7,4.12,4.12,0,0,0-5.83,0Z"/><path class="cls-1" d="M108.82,90.07v21.57h-4.11V90.07Z"/><path class="cls-1" d="M116.66,90.07v21.57h-4.11V90.07Z"/><path class="cls-1" d="M144.18,111.64h-4.11l-9.21-14v14h-4.11V91.06h4.11l9.21,14.11V91.06h4.11Z"/><path class="cls-1" d="M159.61,96.28a7.18,7.18,0,0,1,3,2.87,9.52,9.52,0,0,1,0,8.81,7.32,7.32,0,0,1-3,2.88,9.49,9.49,0,0,1-8.48,0,7.39,7.39,0,0,1-3-2.88,9.52,9.52,0,0,1,0-8.81,7.24,7.24,0,0,1,3-2.87,9.57,9.57,0,0,1,8.48,0Zm-7.15,3.77a5.75,5.75,0,0,0,0,7,4.12,4.12,0,0,0,5.83,0,5.79,5.79,0,0,0,0-7,4.12,4.12,0,0,0-5.83,0Z"/><path class="cls-1" d="M189.68,95.49l-4.34,16.15h-4.55l-3.47-11.75-3.55,11.75h-4.55L164.9,95.49H169L171.64,108l3.58-12.47h4.35L183.18,108l2.65-12.47Z"/><path class="cls-1" d="M229,190.87H0V0H229ZM8.15,182.72H220.83V8.16H8.15Z"/><rect class="cls-1" x="4.08" y="30.24" width="205.25" height="8.16"/><rect class="cls-1" x="17.93" y="15.26" width="7.96" height="8.16"/><rect class="cls-1" x="33.85" y="15.26" width="7.96" height="8.16"/><rect class="cls-1" x="49.78" y="15.26" width="7.96" height="8.16"/><polygon class="cls-1" points="155.73 136.35 17.93 136.35 17.93 70.77 209.21 70.77 209.21 117.2 199.1 117.2 199.1 80.04 28.04 80.04 28.04 127.08 155.73 127.08 155.73 136.35"/><path class="cls-1" d="M187.1,162.13l-5.87-10.47-8.79,4.92.21-36.68,31.32,19-8.77,5,5.88,10.52Zm-3.82-17.73,5.88,10.5,4.65-2.56L188,141.88l5.49-3.13-15.52-9.41-.1,18.11Z"/></svg>