<svg width="228" height="63" viewBox="0 0 228 63" fill="none" xmlns="http://www.w3.org/2000/svg">
<g clip-path="url(#clip0_4_172)">
<path d="M16.7139 34.8122H31.582C32.8182 34.8122 33.9358 35.015 34.918 35.4037C35.9171 35.8093 36.7638 36.35 37.475 37.0429C38.1863 37.7358 38.7282 38.5469 39.1007 39.4764C39.4733 40.4058 39.6595 41.386 39.6595 42.3999C39.6595 44.0223 39.3208 45.4249 38.6435 46.6078C37.9661 47.7908 36.8485 48.6864 35.3075 49.3117V49.3962C36.0526 49.599 36.6791 49.9201 37.1702 50.3425C37.6613 50.765 38.0508 51.272 38.3725 51.8635C38.6774 52.4549 38.9144 53.0971 39.0499 53.7731C39.1854 54.449 39.287 55.1419 39.3378 55.8348C39.3547 56.2741 39.3886 56.7811 39.4225 57.3726C39.4394 57.9641 39.4902 58.5555 39.5579 59.1639C39.6257 59.7723 39.7273 60.3468 39.8627 60.9214C39.9982 61.4791 40.2184 61.9691 40.5062 62.3409H34.4438C34.2576 61.9015 34.1221 61.4284 34.0374 60.8876C33.9528 60.3637 33.8681 59.8061 33.8004 59.2315C33.7326 58.6569 33.6818 58.0654 33.6479 57.4571C33.6141 56.8487 33.5463 56.2741 33.4786 55.7334C33.2754 54.2969 32.8351 53.2323 32.1577 52.5732C31.4804 51.8973 30.3966 51.5762 28.8725 51.5762H22.8102V62.3409H16.7139V34.8122ZM22.7763 47.2669H29.4144C30.7861 47.2669 31.8191 46.9627 32.5303 46.3374C33.2415 45.7122 33.5971 44.7151 33.5971 43.3294C33.5971 41.9944 33.2415 41.0311 32.5303 40.4227C31.8191 39.8144 30.7861 39.5102 29.4144 39.5102H22.7763V47.2669Z" fill="#00579E"/>
<path d="M44.6043 34.8122H65.2299V39.8989H50.6667V45.7967H64.0276V50.4946H50.6667V57.2374H65.5348V62.324H44.6043V34.8122Z" fill="#00579E"/>
<path d="M88.0401 44.073C87.9385 43.3801 87.7014 42.7379 87.3458 42.1634C86.9902 41.5888 86.533 41.0818 85.9911 40.6424C85.4492 40.2031 84.8396 39.8651 84.1622 39.6285C83.4848 39.3919 82.7567 39.2567 82.0116 39.2567C80.6399 39.2567 79.4884 39.5271 78.5401 40.051C77.5918 40.5748 76.8128 41.2846 76.2201 42.1634C75.6274 43.0421 75.2041 44.0561 74.9331 45.1883C74.6622 46.3205 74.5267 47.4866 74.5267 48.7033C74.5267 49.8525 74.6622 50.9847 74.9331 52.0832C75.2041 53.1816 75.6274 54.1618 76.2201 55.0405C76.8128 55.9193 77.5918 56.6121 78.5401 57.136C79.4884 57.6599 80.6569 57.9303 82.0116 57.9303C83.8743 57.9303 85.3137 57.3557 86.3636 56.2065C87.4135 55.0574 88.0401 53.5872 88.2772 51.7452H94.1533C94.0009 53.4689 93.5945 55.0236 92.951 56.4093C92.3075 57.7951 91.4608 58.978 90.3939 59.9582C89.344 60.9383 88.1078 61.6819 86.6854 62.2057C85.2629 62.7296 83.705 63 82.0116 63C79.8779 63 77.9643 62.6282 76.2879 61.8847C74.6114 61.1411 73.1889 60.1271 72.0374 58.8428C70.8859 57.5585 69.9884 56.0376 69.3788 54.2969C68.7522 52.5563 68.4474 50.6805 68.4474 48.7033C68.4474 46.6754 68.7522 44.7658 69.3788 42.9914C70.0053 41.217 70.8859 39.6792 72.0374 38.3611C73.1889 37.0429 74.6114 36.029 76.2879 35.2685C77.9643 34.5249 79.861 34.1532 82.0116 34.1532C83.5356 34.1532 84.975 34.3729 86.3128 34.8122C87.6676 35.2516 88.8699 35.8938 89.9367 36.7218C91.0036 37.5499 91.8841 38.5976 92.5784 39.8313C93.2727 41.0649 93.713 42.4844 93.8993 44.073H88.0401Z" fill="#00579E"/>
<path d="M98.2683 34.8122H113.136C114.373 34.8122 115.49 35.015 116.472 35.4037C117.471 35.8093 118.318 36.35 119.029 37.0429C119.741 37.7358 120.283 38.5469 120.655 39.4764C121.028 40.4058 121.214 41.386 121.214 42.3999C121.214 44.0223 120.875 45.4249 120.198 46.6078C119.52 47.7908 118.403 48.6864 116.862 49.3117V49.3962C117.607 49.599 118.234 49.9201 118.725 50.3425C119.216 50.765 119.605 51.272 119.927 51.8635C120.232 52.4549 120.469 53.0971 120.604 53.7731C120.74 54.449 120.841 55.1419 120.892 55.8348C120.909 56.2741 120.943 56.7811 120.977 57.3726C120.994 57.9641 121.045 58.5555 121.112 59.1639C121.18 59.7723 121.282 60.3468 121.417 60.9214C121.553 61.4791 121.773 61.9691 122.061 62.3409H115.998C115.812 61.9015 115.676 61.4284 115.592 60.8876C115.507 60.3637 115.422 59.8061 115.355 59.2315C115.287 58.6569 115.236 58.0654 115.202 57.4571C115.168 56.8487 115.101 56.2741 115.033 55.7334C114.83 54.2969 114.389 53.2323 113.712 52.5732C113.035 51.8973 111.951 51.5762 110.427 51.5762H104.365V62.3409H98.3021V34.8122H98.2683ZM104.348 47.2669H110.986C112.357 47.2669 113.39 46.9627 114.102 46.3374C114.813 45.7122 115.168 44.7151 115.168 43.3294C115.168 41.9944 114.813 41.0311 114.102 40.4227C113.39 39.8144 112.357 39.5102 110.986 39.5102H104.348V47.2669Z" fill="#00579E"/>
<path d="M149.578 51.9311C149.578 55.6658 148.529 58.4372 146.446 60.2623C144.363 62.0874 141.467 63 137.792 63C134.05 63 131.171 62.0874 129.122 60.2792C127.073 58.471 126.057 55.6827 126.057 51.9311V34.8122H132.119V51.9311C132.119 52.6746 132.187 53.4013 132.306 54.1279C132.441 54.8546 132.712 55.4968 133.119 56.0544C133.525 56.6121 134.101 57.0684 134.846 57.4064C135.574 57.7444 136.573 57.9134 137.809 57.9134C139.977 57.9134 141.467 57.4233 142.297 56.46C143.127 55.4968 143.533 53.9927 143.533 51.9311V34.8122H149.595V51.9311H149.578Z" fill="#00579E"/>
<path d="M154.794 34.8122H160.873V62.3409H154.811V34.8122H154.794Z" fill="#00579E"/>
<path d="M172.304 39.8989H164.04V34.8122H186.647V39.8989H178.383V62.3409H172.321V39.8989H172.304Z" fill="#00579E"/>
<path d="M193.946 53.2154C193.946 54.1448 194.115 54.9222 194.454 55.5644C194.792 56.2065 195.233 56.7304 195.791 57.1191C196.35 57.5247 196.994 57.812 197.722 57.9978C198.45 58.1837 199.229 58.2851 200.059 58.2851C200.601 58.2851 201.176 58.2344 201.803 58.1499C202.43 58.0654 203.005 57.8796 203.547 57.6261C204.089 57.3726 204.546 57.0177 204.902 56.5614C205.258 56.1051 205.444 55.5475 205.444 54.8377C205.444 54.0941 205.207 53.4858 204.733 53.0295C204.258 52.5732 203.632 52.1676 202.853 51.8466C202.074 51.5255 201.21 51.2551 200.228 51.0354C199.246 50.8157 198.264 50.5622 197.248 50.2918C196.215 50.0383 195.216 49.7173 194.234 49.3455C193.251 48.9737 192.371 48.4836 191.609 47.8922C190.83 47.3007 190.203 46.574 189.729 45.6953C189.255 44.8165 189.018 43.735 189.018 42.4506C189.018 41.0311 189.323 39.8144 189.932 38.7666C190.542 37.7189 191.321 36.857 192.303 36.1642C193.285 35.4713 194.386 34.9643 195.622 34.6263C196.858 34.2883 198.094 34.1194 199.331 34.1194C200.77 34.1194 202.159 34.2883 203.479 34.6094C204.8 34.9305 205.986 35.4544 207.019 36.1642C208.052 36.8908 208.865 37.8034 209.474 38.9187C210.084 40.0341 210.389 41.386 210.389 42.9914H204.512C204.462 42.1633 204.292 41.4874 203.988 40.9466C203.683 40.4058 203.293 39.9834 202.802 39.6792C202.311 39.375 201.752 39.1553 201.109 39.0201C200.465 38.8849 199.788 38.8342 199.06 38.8342C198.569 38.8342 198.078 38.8849 197.586 38.9863C197.095 39.0877 196.655 39.2736 196.249 39.5271C195.842 39.7806 195.52 40.1186 195.266 40.5072C195.012 40.9128 194.877 41.386 194.877 41.9606C194.877 42.5013 194.979 42.9407 195.182 43.2787C195.385 43.6167 195.791 43.9209 196.401 44.1912C197.011 44.4616 197.84 44.7489 198.907 45.0362C199.974 45.3404 201.38 45.6953 203.107 46.1346C203.446 46.2191 203.886 46.3205 204.428 46.4557C204.97 46.5909 205.545 46.7937 206.155 47.0303C206.765 47.2669 207.357 47.588 207.967 47.9767C208.577 48.3653 209.119 48.8385 209.627 49.3962C210.135 49.9539 210.541 50.6298 210.846 51.4241C211.151 52.2014 211.303 53.114 211.303 54.1448C211.303 55.4123 211.066 56.5783 210.575 57.6599C210.084 58.7414 209.356 59.6709 208.39 60.4482C207.425 61.2256 206.223 61.8509 204.8 62.3071C203.378 62.7634 201.718 62.9831 199.839 62.9831C198.315 62.9831 196.841 62.7972 195.419 62.4085C193.996 62.0198 192.726 61.4284 191.66 60.6341C190.576 59.8398 189.712 58.8259 189.052 57.5923C188.391 56.3586 188.086 54.8884 188.103 53.1985H193.946V53.2154Z" fill="#00579E"/>
<path d="M106.126 0.625275H84.9242V5.74571H106.126V0.625275Z" fill="#C70000"/>
<path d="M69.5651 0.625275H64.434V5.74571H69.5651V0.625275Z" fill="#00579E"/>
<path d="M79.8102 0.625275H74.6791V5.74571H79.8102V0.625275Z" fill="#00579E"/>
<path d="M29.3975 0.659058H37.9323L44.3841 19.5861H44.4688L50.5651 0.659058H59.0998V28.1878H53.4269V8.66925H53.3422L46.5856 28.1709H41.9118L35.1551 8.87204H35.0704V28.1878H29.3975V0.659058Z" fill="#00579E"/>
<path d="M111.087 0.659058H125.955C127.192 0.659058 128.309 0.861847 129.291 1.25053C130.291 1.65611 131.137 2.19688 131.848 2.88974C132.56 3.58261 133.102 4.39377 133.474 5.32322C133.847 6.25267 134.033 7.23282 134.033 8.24677C134.033 9.86909 133.694 11.2717 133.017 12.4547C132.34 13.6376 131.222 14.5333 129.681 15.1585V15.243C130.426 15.4458 131.053 15.7669 131.544 16.1894C132.035 16.6118 132.424 17.1188 132.746 17.7103C133.051 18.3018 133.288 18.9439 133.423 19.6199C133.559 20.2959 133.66 20.9887 133.711 21.6816C133.728 22.121 133.762 22.6279 133.796 23.2194C133.813 23.8109 133.864 24.4024 133.931 25.0107C133.999 25.6191 134.101 26.1937 134.236 26.7682C134.372 27.3259 134.592 27.816 134.88 28.1878H128.817C128.631 27.7484 128.496 27.2752 128.411 26.7344C128.326 26.2106 128.242 25.6529 128.174 25.0783C128.106 24.5037 128.055 23.9123 128.021 23.3039C127.988 22.6955 127.92 22.121 127.852 21.5802C127.649 20.1438 127.209 19.0791 126.531 18.4201C125.854 17.7441 124.77 17.423 123.246 17.423H117.184V28.1878H111.087V0.659058ZM117.15 13.1137H123.788C125.16 13.1137 126.193 12.8095 126.904 12.1843C127.615 11.559 127.971 10.562 127.971 9.17622C127.971 7.84119 127.615 6.87794 126.904 6.26957C126.193 5.6612 125.16 5.35702 123.788 5.35702H117.15V13.1137Z" fill="#00579E"/>
<path d="M138.978 0.659058H145.04V28.1878H138.978V0.659058Z" fill="#00579E"/>
<path d="M168.765 9.90289C168.663 9.21002 168.426 8.56786 168.07 7.99329C167.715 7.41872 167.258 6.91174 166.716 6.47236C166.174 6.03299 165.564 5.695 164.887 5.45841C164.209 5.22183 163.481 5.08663 162.736 5.08663C161.365 5.08663 160.213 5.35702 159.265 5.88089C158.316 6.40477 157.537 7.11453 156.945 7.99329C156.352 8.87204 155.929 9.88599 155.658 11.0182C155.387 12.1505 155.251 13.3165 155.251 14.5333C155.251 15.6824 155.387 16.8146 155.658 17.9131C155.929 19.0115 156.352 19.9917 156.945 20.8704C157.537 21.7492 158.316 22.4421 159.265 22.9659C160.213 23.4898 161.381 23.7602 162.736 23.7602C164.599 23.7602 166.038 23.1856 167.088 22.0365C168.138 20.8873 168.765 19.4002 169.002 17.5751H174.878C174.725 19.2988 174.319 20.8535 173.676 22.2393C173.032 23.625 172.185 24.8079 171.119 25.7881C170.069 26.7682 168.832 27.5118 167.41 28.0357C165.988 28.5595 164.43 28.8299 162.736 28.8299C160.602 28.8299 158.689 28.4581 157.012 27.7146C155.336 26.971 153.914 25.9571 152.762 24.6727C151.611 23.3884 150.713 21.8675 150.103 20.1269C149.477 18.3863 149.172 16.5105 149.172 14.5333C149.172 12.5054 149.477 10.5958 150.103 8.82134C150.73 7.04693 151.611 5.50911 152.762 4.19098C153.914 2.87285 155.336 1.8589 157.012 1.09844C158.689 0.354874 160.586 -0.0169067 162.736 -0.0169067C164.26 -0.0169067 165.7 0.202782 167.037 0.64216C168.392 1.08154 169.594 1.7237 170.661 2.55176C171.728 3.37982 172.609 4.42757 173.303 5.6612C173.997 6.89484 174.438 8.31437 174.624 9.90289H168.765Z" fill="#00579E"/>
<path d="M204.699 0.659058H210.727L222.242 19.1298H222.327V0.659058H228V28.1878H221.938L210.456 9.7508H210.372V28.1878H204.699V0.659058Z" fill="#00579E"/>
<path d="M106.126 23.0504H64.434V28.1709H106.126V23.0504Z" fill="#C70000"/>
<path d="M106.126 11.8463H84.9242V16.9667H106.126V11.8463Z" fill="#C70000"/>
<path d="M69.5651 11.8463H64.434V16.9667H69.5651V11.8463Z" fill="#00579E"/>
<path d="M79.8102 11.8463H74.6791V16.9667H79.8102V11.8463Z" fill="#00579E"/>
<path d="M10.4652 0.659058H16.68L26.9929 28.1878H20.6934L18.6275 22.0534H8.31462L6.14706 28.1878H0L10.4652 0.659058Z" fill="#00579E"/>
<path d="M13.4964 7.33423L14.7496 11.1703L18.7968 11.1872L15.5285 13.5531L16.7647 17.3892L13.4964 15.0402L10.2112 17.3892L11.4474 13.5531L8.19608 11.1872L12.2264 11.1703L13.4964 7.33423Z" fill="white"/>
<path d="M185.766 0.659058H191.981L202.294 28.1878H195.995L193.912 22.0534H183.599L181.431 28.1878H175.284L185.766 0.659058Z" fill="#00579E"/>
<path d="M188.781 7.33423L190.051 11.1703L194.081 11.1872L190.83 13.5531L192.066 17.3892L188.781 15.0402L185.512 17.3892L186.749 13.5531L183.497 11.1872L187.528 11.1703L188.781 7.33423Z" fill="white"/>
</g>
<defs>
<clipPath id="clip0_4_172">
<rect width="228" height="63" fill="white"/>
</clipPath>
</defs>
</svg>
