<svg width="146" height="140" viewBox="0 0 146 140" fill="none" xmlns="http://www.w3.org/2000/svg">
<path d="M67.9911 139.624C30.2336 138.94 0.083759 107.594 0.766245 69.7494C1.44873 31.8849 32.7226 1.66571 70.4802 2.34977C79.1518 2.51072 87.5825 4.2611 95.5314 7.58078C99.6063 9.27081 101.533 13.9586 99.8471 18.0428C98.161 22.127 93.4639 24.0585 89.4091 22.3685C83.327 19.8334 76.8634 18.4854 70.1992 18.3647C41.2336 17.8215 17.2463 40.9989 16.7244 70.0311C16.2025 99.0431 39.3267 123.086 68.2922 123.609C97.2577 124.132 121.225 100.954 121.747 71.9223C121.807 68.7032 121.566 65.464 121.044 62.3455C120.322 57.9796 123.272 53.8552 127.628 53.151C131.964 52.4267 136.079 55.3842 136.802 59.7501C137.464 63.8343 137.785 68.0393 137.705 72.2241C137.023 110.068 105.749 140.308 67.9911 139.624Z" fill="#48D88A"/>
<path d="M108.94 29.6517L71.6443 72.8478L50.8285 46.0086C46.3321 38.6651 29.29 51.9841 32.2207 59.4886L59.2993 98.7413C66.5056 109.586 76.6224 107.292 82.5641 98.1981C82.5641 98.1981 147.721 3.33561 145.172 1.30356C138.929 -3.6659 130.86 5.52861 108.94 29.6517Z" fill="#48D88A"/>
</svg>
