<svg width="234" height="155" viewBox="0 0 234 155" fill="none" xmlns="http://www.w3.org/2000/svg">
<path d="M189.011 71.5001C188.764 69.7903 187.929 68.1427 186.631 66.8371L177.671 57.8218V19.3361C177.671 14.8906 174.055 11.2534 169.637 11.2534H131.384L122.546 2.36253C119.426 -0.777257 114.327 -0.777257 111.175 2.36253L102.338 11.2534H64.1159C59.6973 11.2534 56.0821 14.8906 56.0821 19.3361V57.8218L47.1214 66.8371C45.8236 68.1427 44.9893 69.7903 44.7421 71.5001C44.6803 71.9043 44.6494 72.3395 44.6494 72.7436V146.917C44.6494 151.363 48.2646 155 52.6832 155H181.07C185.488 155 189.103 151.363 189.103 146.917V72.7436C189.103 72.7436 189.073 71.9043 189.011 71.5001ZM185.272 79.5517C185.303 79.5206 185.365 79.4895 185.395 79.4584V140.078C185.365 140.047 185.303 140.016 185.272 139.985L136.266 109.768L185.272 79.5517ZM184.036 69.4795C184.747 70.1945 185.241 71.096 185.365 72.0286C185.612 73.7695 184.808 75.4482 183.356 76.3808L177.671 79.8625V63.0755L184.036 69.4795ZM113.833 5.00493C115.532 3.29515 118.251 3.29515 119.951 5.00493L126.162 11.2534H107.622L113.833 5.00493ZM64.1159 14.9839H169.637C172.016 14.9839 173.963 16.9424 173.963 19.3361V82.163L132.712 107.623L121.063 100.411C118.468 98.8256 115.254 98.8256 112.659 100.411L101.041 107.592L59.79 82.1319V19.3361C59.79 16.9424 61.7367 14.9839 64.1159 14.9839ZM97.4871 109.768L48.4809 140.016C48.45 140.047 48.3882 140.078 48.3573 140.109V79.4895C48.3882 79.5206 48.45 79.5517 48.4809 79.5828L97.4871 109.768ZM48.4191 72.0286C48.5427 71.1271 49.0062 70.1945 49.7478 69.4795L56.113 63.0755V79.8625L50.4585 76.3808C48.9444 75.4482 48.1719 73.7695 48.4191 72.0286ZM181.07 151.269H52.6832C50.304 151.269 48.3573 149.311 48.3573 146.917C48.3573 145.425 49.1607 143.995 50.4276 143.218L114.605 103.613C115.316 103.178 116.088 102.96 116.861 102.96C117.633 102.96 118.437 103.178 119.117 103.613L183.294 143.218C184.561 143.995 185.365 145.425 185.365 146.917C185.396 149.311 183.449 151.269 181.07 151.269Z" fill="#252323"/>
<path d="M117.016 80.2045C129.814 80.2045 140.19 69.7659 140.19 56.8893C140.19 44.0126 129.814 33.574 117.016 33.574C104.217 33.574 93.8411 44.0126 93.8411 56.8893C93.8411 69.7659 104.217 80.2045 117.016 80.2045Z" fill="#C70000"/>
<path d="M24.1014 74.6089H1.85395C0.83428 74.6089 0 73.7695 0 72.7436C0 71.7178 0.83428 70.8784 1.85395 70.8784H24.1014C25.1211 70.8784 25.9554 71.7178 25.9554 72.7436C25.9554 73.7695 25.1211 74.6089 24.1014 74.6089Z" fill="#C70000"/>
<path d="M30.0649 58.3503C29.7559 58.3503 29.4469 58.2571 29.1379 58.1016L9.8568 46.9103C8.96072 46.3818 8.65173 45.2627 9.17702 44.3611C9.7023 43.4596 10.8147 43.1488 11.7108 43.6772L30.9919 54.8686C31.888 55.397 32.197 56.5162 31.6717 57.4177C31.3318 58.0084 30.7138 58.3503 30.0649 58.3503Z" fill="#C70000"/>
<path d="M10.8148 102.028C10.1659 102.028 9.54791 101.686 9.20802 101.095C8.68273 100.193 8.99173 99.0743 9.8878 98.5458L29.1689 87.3545C30.065 86.826 31.1774 87.1369 31.7027 88.0384C32.228 88.9399 31.919 90.059 31.0229 90.5875L11.7418 101.779C11.4328 101.934 11.1238 102.028 10.8148 102.028Z" fill="#C70000"/>
<path d="M232.146 74.6089H209.899C208.879 74.6089 208.045 73.7695 208.045 72.7436C208.045 71.7178 208.879 70.8784 209.899 70.8784H232.146C233.166 70.8784 234 71.7178 234 72.7436C234 73.7695 233.166 74.6089 232.146 74.6089Z" fill="#C70000"/>
<path d="M203.935 58.3503C203.286 58.3503 202.668 58.0084 202.328 57.4177C201.803 56.5162 202.112 55.397 203.008 54.8686L222.289 43.6772C223.185 43.1488 224.298 43.4596 224.823 44.3611C225.348 45.2627 225.039 46.3818 224.143 46.9103L204.862 58.1016C204.553 58.2571 204.244 58.3503 203.935 58.3503Z" fill="#C70000"/>
<path d="M223.185 102.028C222.876 102.028 222.567 101.934 222.258 101.779L202.977 90.5875C202.081 90.059 201.772 88.9399 202.297 88.0384C202.823 87.1369 203.935 86.826 204.831 87.3545L224.112 98.5458C225.008 99.0743 225.317 100.193 224.792 101.095C224.452 101.686 223.834 102.028 223.185 102.028Z" fill="#C70000"/>
<path d="M117.016 66.5262C117.973 66.5262 118.839 66.8993 119.58 67.6454C120.322 68.3915 120.693 69.2619 120.693 70.2256C120.693 71.2204 120.322 72.0597 119.58 72.8058C118.839 73.5519 117.973 73.925 116.985 73.925C115.965 73.925 115.131 73.5519 114.389 72.8369C113.678 72.1219 113.308 71.2515 113.308 70.2567C113.308 69.2619 113.678 68.3915 114.42 67.6454C115.192 66.8993 116.027 66.5262 117.016 66.5262ZM117.077 39.4183C119.364 39.4183 120.507 41.5012 120.507 45.6668C120.507 47.9362 120.198 51.1071 119.611 55.2106C118.993 59.314 118.499 61.7699 118.128 62.5782C117.881 63.1377 117.541 63.4175 117.108 63.4175C116.645 63.4175 116.274 63.1688 115.996 62.6714C115.656 62.0497 115.162 59.7493 114.544 55.7701C113.926 51.791 113.586 48.4336 113.555 45.6668C113.555 41.5012 114.729 39.4183 117.077 39.4183Z" fill="white"/>
</svg>
